<svg width="675" height="602" viewBox="0 0 675 602" fill="none" xmlns="http://www.w3.org/2000/svg">
<path d="M325.205 317.442L342.29 365.761C342.57 366.555 342.616 367.403 342.423 368.22C342.23 369.038 341.806 369.795 341.192 370.416C340.577 371.037 339.796 371.501 338.925 371.76C338.054 372.019 337.125 372.065 336.23 371.892L281.78 361.35C280.885 361.178 280.058 360.794 279.379 360.236C278.7 359.679 278.195 358.967 277.914 358.174L260.828 309.855C260.548 309.061 260.503 308.213 260.695 307.395C260.888 306.578 261.313 305.821 261.927 305.2C262.541 304.578 263.323 304.115 264.194 303.856C265.065 303.597 265.994 303.551 266.888 303.724L321.339 314.266C322.233 314.438 323.061 314.822 323.739 315.38C324.418 315.937 324.923 316.649 325.205 317.442ZM397.143 264.985L360.021 302.585C359.411 303.203 358.988 303.956 358.794 304.769C358.6 305.582 358.642 306.426 358.917 307.218L375.793 355.703C376.072 356.5 376.575 357.215 377.254 357.776C377.932 358.337 378.761 358.724 379.657 358.899C380.553 359.073 381.485 359.028 382.358 358.769C383.231 358.51 384.015 358.046 384.63 357.423L421.949 319.625C422.563 319.004 422.987 318.247 423.179 317.43C423.372 316.613 423.326 315.765 423.046 314.971L405.961 266.652C405.672 265.865 405.163 265.16 404.483 264.609C403.803 264.058 402.975 263.681 402.084 263.513C401.192 263.345 400.267 263.394 399.401 263.654C398.535 263.915 397.754 264.367 397.143 264.985ZM368.275 235.693L313.824 225.151C312.93 224.979 312 225.024 311.129 225.284C310.257 225.543 309.475 226.007 308.861 226.629L271.53 264.5C270.918 265.122 270.495 265.879 270.304 266.695C270.113 267.512 270.16 268.359 270.441 269.152C270.721 269.945 271.225 270.656 271.902 271.214C272.579 271.772 273.406 272.157 274.299 272.33L328.749 282.873C329.644 283.045 330.574 282.999 331.445 282.74C332.316 282.481 333.098 282.017 333.712 281.395L371.043 243.524C371.655 242.902 372.078 242.145 372.269 241.329C372.46 240.512 372.413 239.665 372.133 238.872C371.852 238.079 371.348 237.368 370.671 236.81C369.994 236.252 369.168 235.867 368.275 235.693ZM585.339 90.0848L671.801 334.604C675.354 344.654 675.944 355.39 673.51 365.735C671.077 376.079 665.706 385.666 657.939 393.533L471.956 581.909C464.187 589.776 454.295 595.646 443.274 598.927C432.252 602.209 420.489 602.788 409.167 600.605L138.042 548.337C126.721 546.154 116.239 541.287 107.651 534.225C99.0623 527.162 92.6701 518.153 89.1161 508.104L4.02407 267.458C0.470807 257.408 -0.118946 246.671 2.31437 236.327C4.74768 225.983 10.1184 216.395 17.8863 208.528L203.869 20.1528C211.638 12.2856 221.53 6.41612 232.551 3.13432C243.573 -0.147488 255.336 -0.725998 266.658 1.45697L542.103 54.613C552.101 56.5269 561.361 60.8131 568.951 67.04C576.541 73.2669 582.193 81.2151 585.339 90.0848ZM566.522 336.893C565.572 334.214 563.867 331.813 561.576 329.931C559.286 328.049 556.491 326.752 553.473 326.17C550.454 325.588 547.318 325.743 544.38 326.617C541.441 327.492 538.804 329.056 536.732 331.152L405.012 464.599C402.94 466.697 400.301 468.263 397.361 469.138C394.422 470.013 391.284 470.168 388.264 469.585L209.137 435.048C208.243 434.876 207.415 434.492 206.736 433.934C206.058 433.377 205.552 432.666 205.271 431.872L176.061 349.264C175.419 347.188 174.324 345.252 172.843 343.573C171.361 341.895 169.523 340.507 167.438 339.494C165.353 338.48 163.064 337.862 160.707 337.676C158.351 337.489 155.976 337.739 153.725 338.409C151.473 339.08 149.391 340.157 147.603 341.578C145.815 342.998 144.357 344.732 143.318 346.676C142.278 348.619 141.678 350.733 141.553 352.89C141.428 355.047 141.78 357.204 142.589 359.231L175.837 453.258C176.785 455.937 178.489 458.338 180.778 460.221C183.068 462.104 185.861 463.402 188.879 463.985L400.739 504.829C403.759 505.411 406.896 505.257 409.836 504.382C412.776 503.506 415.414 501.941 417.486 499.842L562.851 352.632C564.921 350.534 566.351 347.978 567 345.22C567.648 342.462 567.491 339.601 566.544 336.921L566.522 336.893ZM500.007 148.786C499.06 146.108 497.358 143.707 495.07 141.824C492.782 139.941 489.99 138.642 486.974 138.058C483.958 137.474 480.823 137.624 477.885 138.495C474.947 139.365 472.308 140.925 470.233 143.018L406.155 207.709C405.542 208.329 404.762 208.791 403.893 209.05C403.024 209.309 402.097 209.355 401.204 209.184L308.368 191.284C305.348 190.702 302.211 190.856 299.271 191.732C296.331 192.607 293.693 194.173 291.621 196.271L227.738 260.94C227.124 261.561 226.342 262.025 225.471 262.285C224.6 262.544 223.67 262.59 222.775 262.417L159.511 250.219L270.805 137.512C272.877 135.413 275.516 133.848 278.456 132.972C281.395 132.097 284.533 131.943 287.553 132.525L374.625 149.314C379.165 150.142 383.886 149.3 387.764 146.971C391.641 144.643 394.362 141.016 395.335 136.877C396.309 132.739 395.457 128.422 392.964 124.866C390.471 121.309 386.539 118.798 382.02 117.879L275.082 97.257C272.062 96.6748 268.925 96.829 265.985 97.7044C263.045 98.5797 260.406 100.145 258.334 102.244L112.97 249.454C110.899 251.553 109.467 254.11 108.818 256.869C108.17 259.627 108.327 262.491 109.275 265.171C110.222 267.851 111.927 270.254 114.218 272.138C116.508 274.022 119.303 275.32 122.322 275.903L215.311 293.838C216.205 294.01 217.033 294.395 217.712 294.952C218.39 295.51 218.896 296.221 219.177 297.014L248.398 379.654C249.346 382.333 251.05 384.734 253.34 386.617C255.629 388.5 258.423 389.798 261.44 390.381L367.368 410.815C370.388 411.397 373.526 411.243 376.465 410.368C379.405 409.492 382.044 407.927 384.116 405.829L456.811 332.208C458.881 330.11 460.312 327.553 460.961 324.796C461.609 322.038 461.452 319.176 460.505 316.497L431.295 233.889C431.015 233.095 430.969 232.247 431.162 231.43C431.354 230.613 431.779 229.856 432.392 229.235L472.786 188.335C473.093 188.025 473.483 187.795 473.918 187.666C474.353 187.537 474.817 187.515 475.263 187.601C475.71 187.687 476.123 187.879 476.462 188.157C476.801 188.435 477.053 188.79 477.195 189.186L499.706 252.849C500.655 255.528 502.361 257.929 504.651 259.811C506.941 261.694 509.736 262.991 512.755 263.572C515.773 264.154 518.909 264 521.848 263.125C524.786 262.251 527.424 260.687 529.496 258.59C531.565 256.492 532.996 253.936 533.644 251.178C534.293 248.421 534.136 245.559 533.189 242.879L500.007 148.786Z" fill="#17E1FF"/>
</svg>
