<svg width="25" height="24" viewBox="0 0 25 24" fill="none" xmlns="http://www.w3.org/2000/svg">
<path fill-rule="evenodd" clip-rule="evenodd" d="M5.66325 2.61567C6.04809 2.42987 6.46049 2.30005 6.81356 2.30005C7.04624 2.30005 7.2676 2.37347 7.44013 2.44748C7.62469 2.52666 7.81601 2.63426 8.00456 2.75692C8.38236 3.0027 8.79416 3.33848 9.18406 3.72002C9.93717 4.45698 10.7363 5.49023 10.9487 6.50334C11.0389 6.93361 10.9453 7.37083 10.7116 7.7243C10.5682 7.94115 10.3848 8.17098 10.2119 8.38489C10.187 8.41566 10.1622 8.44626 10.1376 8.47671C9.98313 8.66738 9.83311 8.8526 9.69368 9.04052C9.53203 9.25838 9.40271 9.45624 9.31534 9.63382C9.22605 9.81532 9.20197 9.93313 9.20197 10C9.20197 10.3143 9.39363 10.9357 9.81922 11.7099C10.2288 12.4549 10.8001 13.2418 11.4366 13.8704C12.1075 14.5331 12.7015 15.0254 13.2284 15.3488C13.7199 15.6505 14.1136 15.7809 14.43 15.7981C14.4448 15.7857 14.4649 15.7678 14.4907 15.7424C14.5498 15.6842 14.6147 15.6117 14.7038 15.5112L14.7157 15.4977C14.7974 15.4056 14.8951 15.2953 15.0031 15.1839C15.4785 14.6934 16.1936 14.1422 17.3709 14.1422C18.2911 14.1422 19.231 14.628 19.9732 15.27C20.727 15.9219 21.377 16.8191 21.6722 17.7979C21.923 18.6296 21.5148 19.3378 21.0326 19.827C20.547 20.3196 19.8673 20.7254 19.2069 21.0387C18.0956 21.5661 16.8605 21.751 15.6583 21.6354C13.5199 21.4296 10.5409 20.5801 7.02055 17.2451C7.009 17.2341 6.99782 17.2228 6.98704 17.2111C4.98874 15.041 3.90222 13.205 3.33838 11.5259C2.7736 9.84393 2.75214 8.37239 2.80243 6.98848C2.85964 5.41411 3.59034 4.24419 4.41345 3.47812C4.82299 3.09696 5.2608 2.80996 5.66325 2.61567ZM5.36725 4.50294C4.7621 5.06616 4.24279 5.90316 4.20151 7.03932C4.1533 8.36594 4.18109 9.63747 4.66555 11.0802C5.14958 12.5216 6.10823 14.1864 8.00072 16.2451C11.2818 19.3471 13.9611 20.0656 15.7924 20.2418C16.7655 20.3354 17.7438 20.1834 18.6067 19.7739C19.2055 19.4898 19.7166 19.1677 20.0355 18.8442C20.3578 18.5172 20.3676 18.3211 20.3318 18.2022C20.127 17.5231 19.6499 16.8414 19.0574 16.3288C18.4533 15.8063 17.8276 15.5422 17.3709 15.5422C16.7121 15.5422 16.3364 15.8199 16.0083 16.1583C15.9226 16.2467 15.8434 16.3361 15.7575 16.4331L15.7516 16.4397C15.6686 16.5334 15.5718 16.6426 15.4733 16.7396C15.2953 16.915 14.9697 17.2 14.502 17.2C13.8204 17.2 13.1477 16.942 12.496 16.542C11.8417 16.1404 11.1619 15.5669 10.4528 14.8665C9.70921 14.1321 9.05915 13.2334 8.59237 12.3843C8.14162 11.5643 7.80197 10.683 7.80197 10C7.80197 9.6364 7.92 9.29861 8.05915 9.01578C8.20022 8.72904 8.38568 8.45386 8.56936 8.2063C8.72801 7.99249 8.89884 7.78165 9.05208 7.59251C9.07621 7.56274 9.0999 7.53349 9.12304 7.50486C9.3008 7.28493 9.4428 7.10485 9.54381 6.95209C9.5801 6.89721 9.58874 6.83946 9.57849 6.79059C9.45368 6.19522 8.90427 5.40502 8.2049 4.72064C7.86855 4.3915 7.52811 4.11715 7.24113 3.93045C7.09729 3.83688 6.97808 3.77266 6.88816 3.73408C6.83821 3.71265 6.80862 3.70405 6.79667 3.70085C6.72664 3.70664 6.5429 3.7456 6.27192 3.87642C5.99275 4.01121 5.67185 4.21945 5.36725 4.50294Z" fill="url(#paint0_linear_154_4701)"/>
<defs>
<linearGradient id="paint0_linear_154_4701" x1="-4.72437" y1="7.11013" x2="9.94093" y2="-1.67278" gradientUnits="userSpaceOnUse">
<stop stop-color="#58F4FF"/>
<stop offset="1" stop-color="white"/>
</linearGradient>
</defs>
</svg>
