<svg width="1050" height="199" viewBox="0 0 1050 199" fill="none" xmlns="http://www.w3.org/2000/svg">
<path d="M1049.4 2.6665H200.375" stroke="url(#paint0_linear_22_4639)" stroke-opacity="0.3"/>
<path d="M935.316 113.176H86.2893" stroke="url(#paint1_linear_22_4639)" stroke-opacity="0.3"/>
<path d="M992.361 57.9214H143.334" stroke="url(#paint2_linear_22_4639)" stroke-opacity="0.3"/>
<path d="M878.279 168.431H29.2515" stroke="url(#paint3_linear_22_4639)" stroke-opacity="0.3"/>
<path d="M1020.88 30.2939H171.853" stroke="url(#paint4_linear_22_4639)" stroke-opacity="0.3"/>
<path d="M906.798 140.804H57.7705" stroke="url(#paint5_linear_22_4639)" stroke-opacity="0.3"/>
<path d="M963.839 85.5488H114.812" stroke="url(#paint6_linear_22_4639)" stroke-opacity="0.3"/>
<path d="M849.756 196.059H0.729248" stroke="url(#paint7_linear_22_4639)" stroke-opacity="0.3"/>
<ellipse cx="775.263" cy="2.95715" rx="2.29211" ry="2.38854" fill="#17E1FF" fill-opacity="0.4"/>
<ellipse cx="758.253" cy="30.5846" rx="2.29211" ry="2.38854" fill="#17E1FF" fill-opacity="0.4"/>
<ellipse cx="739.989" cy="58.2123" rx="2.29211" ry="2.38854" fill="#17E1FF" fill-opacity="0.4"/>
<ellipse cx="720.461" cy="85.8397" rx="2.29211" ry="2.38854" fill="#17E1FF" fill-opacity="0.4"/>
<ellipse cx="699.672" cy="113.467" rx="2.29211" ry="2.38854" fill="#17E1FF" fill-opacity="0.4"/>
<ellipse cx="675.734" cy="141.095" rx="2.29211" ry="2.38854" fill="#17E1FF" fill-opacity="0.4"/>
<ellipse cx="650.536" cy="168.722" rx="2.29211" ry="2.38854" fill="#17E1FF" fill-opacity="0.4"/>
<ellipse cx="628.114" cy="196.349" rx="2.29211" ry="2.38854" fill="#17E1FF" fill-opacity="0.4"/>
<ellipse cx="853.449" cy="2.95715" rx="2.29211" ry="2.38854" fill="#17E1FF" fill-opacity="0.1"/>
<ellipse cx="836.439" cy="30.5846" rx="2.29211" ry="2.38854" fill="#17E1FF" fill-opacity="0.1"/>
<ellipse cx="818.175" cy="58.2123" rx="2.29211" ry="2.38854" fill="#17E1FF" fill-opacity="0.1"/>
<ellipse cx="798.647" cy="85.8397" rx="2.29211" ry="2.38854" fill="#17E1FF" fill-opacity="0.1"/>
<ellipse cx="777.858" cy="113.467" rx="2.29211" ry="2.38854" fill="#17E1FF" fill-opacity="0.1"/>
<ellipse cx="753.921" cy="141.095" rx="2.29211" ry="2.38854" fill="#17E1FF" fill-opacity="0.1"/>
<ellipse cx="728.722" cy="168.722" rx="2.29211" ry="2.38854" fill="#17E1FF" fill-opacity="0.1"/>
<ellipse cx="706.301" cy="196.349" rx="2.29211" ry="2.38854" fill="#17E1FF" fill-opacity="0.1"/>
<ellipse cx="685.151" cy="2.95715" rx="2.29211" ry="2.38854" fill="#17E1FF" fill-opacity="0.4"/>
<ellipse cx="668.141" cy="30.5846" rx="2.29211" ry="2.38854" fill="#17E1FF" fill-opacity="0.4"/>
<ellipse cx="649.877" cy="58.2123" rx="2.29211" ry="2.38854" fill="#17E1FF" fill-opacity="0.4"/>
<ellipse cx="630.349" cy="85.8397" rx="2.29211" ry="2.38854" fill="#17E1FF" fill-opacity="0.4"/>
<ellipse cx="609.56" cy="113.467" rx="2.29211" ry="2.38854" fill="#17E1FF" fill-opacity="0.4"/>
<ellipse cx="585.623" cy="141.095" rx="2.29211" ry="2.38854" fill="#17E1FF" fill-opacity="0.4"/>
<ellipse cx="560.424" cy="168.722" rx="2.29211" ry="2.38854" fill="#17E1FF" fill-opacity="0.4"/>
<ellipse cx="538.003" cy="196.349" rx="2.29211" ry="2.38854" fill="#17E1FF" fill-opacity="0.4"/>
<ellipse cx="595.033" cy="2.95715" rx="2.29211" ry="2.38854" fill="#17E1FF" fill-opacity="0.4"/>
<ellipse cx="578.023" cy="30.5846" rx="2.29211" ry="2.38854" fill="#17E1FF" fill-opacity="0.4"/>
<ellipse cx="559.759" cy="58.2123" rx="2.29211" ry="2.38854" fill="#17E1FF" fill-opacity="0.4"/>
<ellipse cx="540.231" cy="85.8397" rx="2.29211" ry="2.38854" fill="#17E1FF" fill-opacity="0.4"/>
<ellipse cx="519.443" cy="113.467" rx="2.29211" ry="2.38854" fill="#17E1FF" fill-opacity="0.4"/>
<ellipse cx="495.505" cy="141.095" rx="2.29211" ry="2.38854" fill="#17E1FF" fill-opacity="0.4"/>
<ellipse cx="470.307" cy="168.722" rx="2.29211" ry="2.38854" fill="#17E1FF" fill-opacity="0.4"/>
<ellipse cx="447.885" cy="196.349" rx="2.29211" ry="2.38854" fill="#17E1FF" fill-opacity="0.4"/>
<ellipse cx="504.922" cy="2.95715" rx="2.29211" ry="2.38854" fill="#17E1FF" fill-opacity="0.4"/>
<ellipse cx="487.912" cy="30.5846" rx="2.29211" ry="2.38854" fill="#17E1FF" fill-opacity="0.4"/>
<ellipse cx="469.649" cy="58.2123" rx="2.29211" ry="2.38854" fill="#17E1FF" fill-opacity="0.4"/>
<ellipse cx="450.12" cy="85.8397" rx="2.29211" ry="2.38854" fill="#17E1FF" fill-opacity="0.4"/>
<ellipse cx="429.332" cy="113.467" rx="2.29211" ry="2.38854" fill="#17E1FF" fill-opacity="0.4"/>
<ellipse cx="405.394" cy="141.095" rx="2.29211" ry="2.38854" fill="#17E1FF" fill-opacity="0.4"/>
<ellipse cx="380.196" cy="168.722" rx="2.29211" ry="2.38854" fill="#17E1FF" fill-opacity="0.4"/>
<ellipse cx="357.774" cy="196.349" rx="2.29211" ry="2.38854" fill="#17E1FF" fill-opacity="0.4"/>
<ellipse cx="414.811" cy="2.95715" rx="2.29211" ry="2.38854" fill="#17E1FF" fill-opacity="0.1"/>
<ellipse cx="397.801" cy="30.5846" rx="2.29211" ry="2.38854" fill="#17E1FF" fill-opacity="0.1"/>
<ellipse cx="379.537" cy="58.2123" rx="2.29211" ry="2.38854" fill="#17E1FF" fill-opacity="0.1"/>
<ellipse cx="360.009" cy="85.8397" rx="2.29211" ry="2.38854" fill="#17E1FF" fill-opacity="0.1"/>
<ellipse cx="339.22" cy="113.467" rx="2.29211" ry="2.38854" fill="#17E1FF" fill-opacity="0.1"/>
<ellipse cx="315.283" cy="141.095" rx="2.29211" ry="2.38854" fill="#17E1FF" fill-opacity="0.1"/>
<ellipse cx="290.084" cy="168.722" rx="2.29211" ry="2.38854" fill="#17E1FF" fill-opacity="0.1"/>
<ellipse cx="267.663" cy="196.349" rx="2.29211" ry="2.38854" fill="#17E1FF" fill-opacity="0.1"/>
<defs>
<linearGradient id="paint0_linear_22_4639" x1="200.375" y1="3.1665" x2="1049.4" y2="3.1665" gradientUnits="userSpaceOnUse">
<stop stop-color="#4C4E59" stop-opacity="0"/>
<stop offset="0.53" stop-color="#4C4E59"/>
<stop offset="1" stop-color="#4C4E59" stop-opacity="0"/>
</linearGradient>
<linearGradient id="paint1_linear_22_4639" x1="86.2893" y1="113.676" x2="935.316" y2="113.676" gradientUnits="userSpaceOnUse">
<stop stop-color="#4C4E59" stop-opacity="0"/>
<stop offset="0.53" stop-color="#4C4E59"/>
<stop offset="1" stop-color="#4C4E59" stop-opacity="0"/>
</linearGradient>
<linearGradient id="paint2_linear_22_4639" x1="143.334" y1="58.4214" x2="992.361" y2="58.4214" gradientUnits="userSpaceOnUse">
<stop stop-color="#4C4E59" stop-opacity="0"/>
<stop offset="0.53" stop-color="#4C4E59"/>
<stop offset="1" stop-color="#4C4E59" stop-opacity="0"/>
</linearGradient>
<linearGradient id="paint3_linear_22_4639" x1="29.2515" y1="168.931" x2="878.279" y2="168.931" gradientUnits="userSpaceOnUse">
<stop stop-color="#4C4E59" stop-opacity="0"/>
<stop offset="0.53" stop-color="#4C4E59"/>
<stop offset="1" stop-color="#4C4E59" stop-opacity="0"/>
</linearGradient>
<linearGradient id="paint4_linear_22_4639" x1="171.853" y1="30.7939" x2="1020.88" y2="30.7939" gradientUnits="userSpaceOnUse">
<stop stop-color="#4C4E59" stop-opacity="0"/>
<stop offset="0.53" stop-color="#4C4E59"/>
<stop offset="1" stop-color="#4C4E59" stop-opacity="0"/>
</linearGradient>
<linearGradient id="paint5_linear_22_4639" x1="57.7705" y1="141.304" x2="906.798" y2="141.304" gradientUnits="userSpaceOnUse">
<stop stop-color="#4C4E59" stop-opacity="0"/>
<stop offset="0.53" stop-color="#4C4E59"/>
<stop offset="1" stop-color="#4C4E59" stop-opacity="0"/>
</linearGradient>
<linearGradient id="paint6_linear_22_4639" x1="114.812" y1="86.0488" x2="963.839" y2="86.0488" gradientUnits="userSpaceOnUse">
<stop stop-color="#4C4E59" stop-opacity="0"/>
<stop offset="0.53" stop-color="#4C4E59"/>
<stop offset="1" stop-color="#4C4E59" stop-opacity="0"/>
</linearGradient>
<linearGradient id="paint7_linear_22_4639" x1="0.729248" y1="196.559" x2="849.756" y2="196.559" gradientUnits="userSpaceOnUse">
<stop stop-color="#4C4E59" stop-opacity="0"/>
<stop offset="0.53" stop-color="#4C4E59"/>
<stop offset="1" stop-color="#4C4E59" stop-opacity="0"/>
</linearGradient>
</defs>
</svg>
