<svg width="60" height="60" viewBox="0 0 60 60" fill="none" xmlns="http://www.w3.org/2000/svg">
<rect x="60" y="1.90735e-06" width="60" height="60" rx="30" transform="rotate(90 60 1.90735e-06)" fill="url(#paint0_linear_43_40)"/>
<path d="M31.8134 26.1928C34.2341 27.6825 35.4445 28.4273 35.6719 29.4644C35.7493 29.8173 35.7493 30.1827 35.6719 30.5356C35.4445 31.5727 34.2341 32.3175 31.8134 33.8072C29.1805 35.4274 27.8641 36.2375 26.7978 35.9254C26.4367 35.8197 26.104 35.6339 25.8247 35.3817C25.0001 34.6371 25.0001 33.0914 25.0001 30C25.0001 26.9086 25.0001 25.3629 25.8247 24.6183C26.104 24.3662 26.4367 24.1803 26.7978 24.0746C27.8641 23.7625 29.1805 24.5726 31.8134 26.1928Z" fill="#202026"/>
<defs>
<linearGradient id="paint0_linear_43_40" x1="60.6531" y1="27.688" x2="120" y2="27.688" gradientUnits="userSpaceOnUse">
<stop stop-color="#D5EDF2"/>
<stop offset="1" stop-color="#A7D3D9"/>
</linearGradient>
</defs>
</svg>
