<svg width="20" height="23" viewBox="0 0 20 23" fill="none" xmlns="http://www.w3.org/2000/svg">
<path fill-rule="evenodd" clip-rule="evenodd" d="M4.12459 3.86575C2.65546 5.28645 1.70194 7.45492 1.70194 10.45C1.70194 12.961 3.30777 15.6832 5.26923 17.8347C6.23726 18.8965 7.2605 19.784 8.15046 20.4003C8.59586 20.7088 8.99688 20.9416 9.3319 21.0947C9.68244 21.2549 9.90155 21.3 10.0019 21.3C10.1023 21.3 10.3214 21.2549 10.672 21.0947C11.007 20.9416 11.408 20.7088 11.8534 20.4003C12.7434 19.784 13.7666 18.8965 14.7346 17.8347C16.6961 15.6832 18.3019 12.961 18.3019 10.45C18.3019 7.45492 17.3484 5.28645 15.8793 3.86575C14.4045 2.43961 12.341 1.70005 10.0019 1.70005C7.66287 1.70005 5.59934 2.43961 4.12459 3.86575ZM3.15137 2.85935C4.93398 1.13549 7.37045 0.300049 10.0019 0.300049C12.6334 0.300049 15.0699 1.13549 16.8525 2.85935C18.6407 4.58864 19.7019 7.14518 19.7019 10.45C19.7019 13.4891 17.8078 16.5419 15.7692 18.7779C14.7373 19.9098 13.6355 20.8692 12.6505 21.5513C12.1584 21.8921 11.6844 22.1714 11.2538 22.3681C10.8387 22.5577 10.4015 22.7001 10.0019 22.7001C9.60233 22.7001 9.16519 22.5577 8.75011 22.3681C8.3195 22.1714 7.84553 21.8921 7.35342 21.5513C6.36838 20.8692 5.26662 19.9098 4.23465 18.7779C2.19611 16.5419 0.301941 13.4891 0.301941 10.45C0.301941 7.14518 1.36314 4.58864 3.15137 2.85935Z" fill="url(#paint0_linear_154_4688)"/>
<path fill-rule="evenodd" clip-rule="evenodd" d="M10.0019 6.70005C8.59362 6.70005 7.45194 7.84172 7.45194 9.25005C7.45194 10.6584 8.59362 11.8 10.0019 11.8C11.4103 11.8 12.5519 10.6584 12.5519 9.25005C12.5519 7.84172 11.4103 6.70005 10.0019 6.70005ZM6.05194 9.25005C6.05194 7.06852 7.82042 5.30005 10.0019 5.30005C12.1835 5.30005 13.9519 7.06852 13.9519 9.25005C13.9519 11.4316 12.1835 13.2 10.0019 13.2C7.82042 13.2 6.05194 11.4316 6.05194 9.25005Z" fill="url(#paint1_linear_154_4688)"/>
<defs>
<linearGradient id="paint0_linear_154_4688" x1="-7.37975" y1="5.86302" x2="8.53708" y2="-2.56888" gradientUnits="userSpaceOnUse">
<stop stop-color="#58F4FF"/>
<stop offset="1" stop-color="white"/>
</linearGradient>
<linearGradient id="paint1_linear_154_4688" x1="2.92383" y1="7.26199" x2="8.96438" y2="3.56718" gradientUnits="userSpaceOnUse">
<stop stop-color="#58F4FF"/>
<stop offset="1" stop-color="white"/>
</linearGradient>
</defs>
</svg>
