<svg width="35" height="39" viewBox="0 0 35 39" fill="none" xmlns="http://www.w3.org/2000/svg">
<g clip-path="url(#clip0_1_1423)">
<path d="M16.494 20.2479V23.4107C16.494 23.4627 16.4802 23.5138 16.454 23.5588C16.4278 23.6037 16.3902 23.6411 16.3449 23.6671C16.2996 23.693 16.2482 23.7067 16.1959 23.7067C16.1435 23.7067 16.0922 23.693 16.0469 23.667L13.2903 22.0825C13.2451 22.0565 13.2075 22.0192 13.1813 21.9742C13.1551 21.9292 13.1413 21.8782 13.1413 21.8262V18.6634C13.1413 18.6115 13.1552 18.5604 13.1813 18.5154C13.2075 18.4704 13.2452 18.4331 13.2905 18.4071C13.3358 18.3811 13.3872 18.3675 13.4395 18.3675C13.4918 18.3675 13.5431 18.3812 13.5884 18.4072L16.345 19.9917C16.3903 20.0176 16.4279 20.055 16.454 20.1C16.4802 20.145 16.494 20.196 16.494 20.2479ZM21.4115 18.4099L18.6716 19.982C18.6266 20.0079 18.5891 20.045 18.563 20.0897C18.5368 20.1345 18.5229 20.1852 18.5226 20.2369L18.508 23.4059C18.5078 23.458 18.5215 23.5092 18.5476 23.5544C18.5736 23.5996 18.6112 23.6372 18.6566 23.6633C18.702 23.6894 18.7534 23.7032 18.8059 23.7033C18.8583 23.7033 18.9098 23.6896 18.9552 23.6636L21.7096 22.0832C21.7549 22.0572 21.7925 22.0199 21.8187 21.9749C21.8449 21.9299 21.8587 21.8789 21.8587 21.8269V18.6641C21.8582 18.6124 21.844 18.5617 21.8176 18.5171C21.7913 18.4725 21.7536 18.4355 21.7083 18.4098C21.6631 18.3842 21.6119 18.3708 21.5598 18.3709C21.5078 18.371 21.4566 18.384 21.4115 18.4099ZM20.4056 16.1661L17.6491 14.5816C17.6037 14.5556 17.5523 14.5419 17.5 14.5419C17.4477 14.5419 17.3962 14.5556 17.3509 14.5816L14.5944 16.1661C14.5492 16.1922 14.5117 16.2295 14.4856 16.2745C14.4596 16.3195 14.4458 16.3705 14.4458 16.4224C14.4458 16.4743 14.4596 16.5253 14.4856 16.5703C14.5117 16.6153 14.5492 16.6526 14.5944 16.6787L17.3509 18.2632C17.3962 18.2892 17.4477 18.3029 17.5 18.3029C17.5523 18.3029 17.6037 18.2892 17.6491 18.2632L20.4056 16.6787C20.4508 16.6526 20.4883 16.6153 20.5144 16.5703C20.5404 16.5253 20.5542 16.4743 20.5542 16.4224C20.5542 16.3705 20.5404 16.3195 20.5144 16.2745C20.4883 16.2295 20.4508 16.1922 20.4056 16.1661ZM35 11.3706V27.3761C35 28.0339 34.8257 28.6802 34.4947 29.2499C34.1637 29.8196 33.6876 30.2927 33.1142 30.6216L19.3871 38.4979C18.8138 38.8268 18.1634 39 17.5014 39C16.8393 39 16.189 38.8268 15.6156 38.4979L1.88575 30.6216C1.31243 30.2927 0.836321 29.8196 0.505305 29.2499C0.174288 28.6802 2.16856e-05 28.0339 0 27.3761V11.6241C2.16856e-05 10.9663 0.174288 10.3201 0.505305 9.75036C0.836321 9.18067 1.31243 8.70759 1.88575 8.37867L15.6129 0.502338C16.1862 0.17341 16.8366 0.000244141 17.4986 0.000244141C18.1606 0.000244141 18.811 0.17341 19.3844 0.502338L33.332 8.50749C33.8385 8.79714 34.2594 9.21426 34.5522 9.71687C34.845 10.2195 34.9995 10.7899 35 11.3706ZM29.2346 25.6552C29.2345 25.4798 29.188 25.3076 29.0996 25.1557C29.0113 25.0038 28.8844 24.8778 28.7315 24.7901C28.5787 24.7024 28.4053 24.6562 28.2288 24.6562C28.0523 24.6562 27.8789 24.7023 27.726 24.7899L18.0033 30.3701C17.8504 30.4578 17.6769 30.504 17.5003 30.504C17.3238 30.504 17.1503 30.4578 16.9974 30.3701L7.92636 25.1661C7.88108 25.1401 7.84348 25.1028 7.81732 25.0578C7.79115 25.0128 7.77735 24.9618 7.77731 24.9098V19.5025C7.78233 19.3682 7.76004 19.2343 7.71178 19.1088C7.66352 18.9832 7.59028 18.8686 7.49644 18.7718C7.4026 18.6751 7.29009 18.5981 7.16562 18.5455C7.04115 18.4929 6.9073 18.4658 6.77205 18.4658C6.6368 18.4658 6.50292 18.4929 6.37846 18.5455C6.25399 18.5981 6.14148 18.6751 6.04764 18.7718C5.9538 18.8686 5.88056 18.9832 5.8323 19.1088C5.78404 19.2343 5.76175 19.3682 5.76677 19.5025V25.6573C5.76681 25.8326 5.81328 26.0049 5.9015 26.1568C5.98973 26.3087 6.11661 26.4348 6.26941 26.5225L16.9981 32.6773C17.151 32.765 17.3245 32.8112 17.501 32.8112C17.6776 32.8112 17.8511 32.765 18.004 32.6773L28.7327 26.5225C28.8855 26.4348 29.0124 26.3087 29.1006 26.1568C29.1888 26.0049 29.2352 25.8326 29.2353 25.6573L29.2346 25.6552ZM29.2346 13.3423C29.2346 13.167 29.1882 12.9948 29.1001 12.8429C29.0119 12.6911 28.8852 12.5649 28.7325 12.4771C28.5798 12.3893 28.4065 12.343 28.2301 12.3427C28.0537 12.3424 27.8803 12.3883 27.7274 12.4756L23.0019 15.1768C22.9567 15.2027 22.9054 15.2163 22.8532 15.2163C22.801 15.2163 22.7498 15.2027 22.7045 15.1768L18.0033 12.4798C17.8504 12.392 17.6769 12.3458 17.5003 12.3458C17.3238 12.3458 17.1503 12.392 16.9974 12.4798L12.283 15.1831C12.2377 15.2091 12.1863 15.2227 12.1339 15.2227C12.0816 15.2227 12.0302 15.2091 11.9849 15.1831L8.78119 13.345L16.9953 8.63288C17.1482 8.54514 17.3217 8.49896 17.4983 8.49896C17.6749 8.49896 17.8483 8.54514 18.0012 8.63288L22.4106 11.1626C22.6414 11.2916 22.9141 11.325 23.1696 11.2555C23.4251 11.186 23.6426 11.0192 23.7751 10.7912C23.9075 10.5633 23.9441 10.2927 23.877 10.0381C23.8099 9.78347 23.6444 9.56545 23.4165 9.43132L18.0012 6.32434C17.8483 6.2366 17.6749 6.19041 17.4983 6.19041C17.3217 6.19041 17.1482 6.2366 16.9953 6.32434L6.26664 12.4791C6.11375 12.5668 5.98679 12.693 5.89852 12.8449C5.81025 12.9969 5.76377 13.1692 5.76377 13.3447C5.76377 13.5201 5.81025 13.6925 5.89852 13.8444C5.98679 13.9964 6.11375 14.1226 6.26664 14.2103L10.9755 16.9122C11.0207 16.9382 11.0583 16.9755 11.0845 17.0205C11.1107 17.0655 11.1245 17.1165 11.1245 17.1685V22.5778C11.1245 22.7532 11.171 22.9255 11.2592 23.0773C11.3475 23.2292 11.4743 23.3554 11.6271 23.4431L16.9911 26.5212C17.144 26.6089 17.3175 26.6551 17.4941 26.6551C17.6707 26.6551 17.8442 26.6089 17.9971 26.5212L23.3625 23.4431C23.5153 23.3554 23.6421 23.2292 23.7304 23.0773C23.8186 22.9255 23.8651 22.7532 23.8651 22.5778V17.1706C23.8651 17.1186 23.8789 17.0676 23.9051 17.0226C23.9312 16.9776 23.9689 16.9403 24.0141 16.9143L26.9953 15.2044C27.0179 15.1915 27.0436 15.1847 27.0697 15.1848C27.0958 15.1848 27.1214 15.1916 27.144 15.2046C27.1666 15.2176 27.1854 15.2362 27.1985 15.2587C27.2115 15.2811 27.2185 15.3066 27.2185 15.3326V19.4998C27.2186 19.6752 27.2652 19.8474 27.3535 19.9993C27.4418 20.1511 27.5687 20.2772 27.7216 20.3649C27.8745 20.4526 28.0478 20.4987 28.2243 20.4988C28.4008 20.4988 28.5742 20.4527 28.7271 20.365C28.8799 20.2773 29.0068 20.1512 29.095 19.9993C29.1832 19.8474 29.2297 19.6751 29.2297 19.4998L29.2346 13.3423Z" fill="#17E1FF"/>
</g>
<defs>
<clipPath id="clip0_1_1423">
<rect width="35" height="39" fill="white"/>
</clipPath>
</defs>
</svg>
