<svg width="47" height="47" viewBox="0 0 47 47" fill="none" xmlns="http://www.w3.org/2000/svg">
<rect x="4.0289" y="0.293335" width="43" height="43" rx="21.5" transform="rotate(4.61798 4.0289 0.293335)" fill="#354447"/>
<path d="M20.5639 16.0508L20.7551 13.6835L14.5254 13.1803L14.0474 19.0985L16.5393 19.2998L15.9656 26.4017L13.4737 26.2004L12.9957 32.1186L19.2254 32.6218L19.4166 30.2545L26.8923 30.8584L26.7011 33.2257L32.9308 33.7289L33.4088 27.8106L30.9169 27.6093L31.4906 20.5075L33.9825 20.7088L34.4605 14.7905L28.2308 14.2873L28.0396 16.6546L20.5639 16.0508ZM27.944 17.8383L27.7527 20.2056L30.2446 20.4068L29.671 27.5087L27.1791 27.3074L26.9879 29.6747L19.5122 29.0709L19.7034 26.7036L17.2116 26.5023L17.7852 19.4004L20.2771 19.6017L20.4683 17.2344L27.944 17.8383ZM29.3811 15.5716L33.1189 15.8735L32.8321 19.4245L29.0943 19.1226L29.3811 15.5716ZM32.0673 28.8936L31.7804 32.4446L28.0426 32.1426L28.3294 28.5917L32.0673 28.8936ZM18.0751 31.3375L14.3372 31.0356L14.6241 27.4847L18.3619 27.7866L18.0751 31.3375ZM15.3889 18.0155L15.6758 14.4646L19.4136 14.7665L19.1268 18.3174L15.3889 18.0155Z" fill="#17E1FF"/>
</svg>
